<svg width="24" height="25" viewBox="0 0 24 25" fill="none" xmlns="http://www.w3.org/2000/svg">
<path d="M12.2449 10.0186V14.7607H18.8349C18.5455 16.2858 17.6771 17.5771 16.3747 18.4454L20.3488 21.5289C22.6642 19.3917 24 16.2525 24 12.5233C24 11.6551 23.9221 10.8201 23.7774 10.0187L12.2449 10.0186Z" fill="#4285F4"/>
<path d="M5.3824 14.5757L4.48611 15.2618L1.31348 17.733C3.32834 21.7293 7.45794 24.4901 12.2446 24.4901C15.5507 24.4901 18.3225 23.3991 20.3485 21.529L16.3745 18.4455C15.2835 19.1802 13.892 19.6255 12.2446 19.6255C9.06091 19.6255 6.35595 17.4771 5.38741 14.5828L5.3824 14.5757Z" fill="#34A853"/>
<path d="M1.31346 6.75708C0.478619 8.40453 0 10.2636 0 12.245C0 14.2264 0.478619 16.0855 1.31346 17.7329C1.31346 17.744 5.38779 14.5715 5.38779 14.5715C5.14289 13.8368 4.99813 13.0576 4.99813 12.2449C4.99813 11.4321 5.14289 10.653 5.38779 9.91827L1.31346 6.75708Z" fill="#FBBC05"/>
<path d="M12.2449 4.87574C14.0482 4.87574 15.6512 5.49911 16.9314 6.70137L20.4378 3.19488C18.3117 1.21345 15.5511 0 12.2449 0C7.4582 0 3.32834 2.74956 1.31348 6.75704L5.38768 9.91849C6.35609 7.02417 9.06116 4.87574 12.2449 4.87574Z" fill="#EA4335"/>
</svg>
