<svg width="48" height="48" viewBox="0 0 48 48" fill="none" xmlns="http://www.w3.org/2000/svg">
<path d="M46.0133 20.8883C42.625 -0.589783 13.7669 -4.95394 3.98927 14.4126C-2.77585 28.2285 6.59183 44.4606 21.887 45.8857C21.769 45.952 27.5678 45.9894 24.6024 45.7321C23.4581 45.6405 21.7229 45.2545 20.3717 44.7918C2.90447 38.6358 2.96687 14.5038 20.4562 8.4539C31.9637 4.3835 44.8978 12.5752 46.0339 24.6616C46.08 25.2078 46.117 25.3398 46.187 25.2136C46.3166 24.9827 46.2053 22.2169 46.0133 20.8883Z" fill="#FF6600"/>
<path d="M42.5837 25.4768C38.6242 29.7622 31.1655 27.272 30.5055 21.536C30.049 18.3761 32.1768 15.2244 35.2114 14.0964C12.6907 3.76155 1.5797 39.6108 26.593 43.1499C36.7541 43.9966 45.1037 34.9212 43.2063 24.9593C43.1813 24.9185 42.901 25.1513 42.5837 25.4768Z" fill="#FF6600"/>
</svg>
